<?xml version="1.0" encoding="UTF-8"?>
<svg version="1.1" xmlns="http://www.w3.org/2000/svg" width="500" height="500">
<path d="M0 0 C1.79543243 0.00456207 1.79543243 0.00456207 3.62713623 0.00921631 C22.35390579 0.07934235 40.38588181 0.95426135 58.8125 4.4375 C60.07674805 4.66775879 61.34099609 4.89801758 62.64355469 5.13525391 C88.23685757 9.83161158 110.88897833 16.61444898 131.8125 32.4375 C132.53695313 32.97632813 133.26140625 33.51515625 134.0078125 34.0703125 C140.18040563 39.04337336 144.73382806 45.46496025 149.50048828 51.73339844 C151.36574143 54.15607558 153.30984821 56.51213357 155.25 58.875 C163.18528624 68.90023817 163.18528624 68.90023817 163 74.5 C159.8738734 92.60677286 145.55386617 103.12304302 131.8125 113.4375 C131.13541992 113.94829102 130.45833984 114.45908203 129.76074219 114.98535156 C109.60446855 130.10954579 87.88775834 142.39119708 65.8125 154.4375 C68.84814847 156.46126565 71.51010811 157.4721128 74.9375 158.6875 C81.83576347 161.29265425 88.62171871 164.15132806 92.8125 170.4375 C93.11328125 172.9609375 93.11328125 172.9609375 93.125 175.8125 C93.14175781 176.74835938 93.15851563 177.68421875 93.17578125 178.6484375 C92.61836121 182.92798488 90.99005283 185.443803 87.7109375 188.2109375 C76.41040668 195.38310102 64.26978599 199.87568953 51.46875 203.6015625 C50.45102005 203.89829865 49.4332901 204.19503479 48.38471985 204.50076294 C39.90784086 206.92634449 31.37613512 209.08605154 22.81415367 211.18506622 C20.53422093 211.74433334 18.2551404 212.30695492 15.97627258 212.87054443 C14.43666661 213.2509801 12.89704965 213.63137132 11.35742188 214.01171875 C10.59043063 214.20125248 9.82343939 214.39078621 9.03320599 214.58606339 C5.1023784 215.55529812 1.1693447 216.51354018 -2.76879883 217.45263672 C-6.66105907 218.38168054 -10.54517006 219.33980627 -14.42563438 220.31689835 C-15.8792563 220.67739837 -17.33547445 221.02762162 -18.79432106 221.36635971 C-28.79626851 223.69532013 -35.7217607 227.26802666 -43.1875 234.4375 C-44.47139288 235.59775369 -45.75626678 236.75692482 -47.04296875 237.9140625 C-48.15657543 238.96043255 -49.26730275 240.00987618 -50.375 241.0625 C-51.57342172 242.18834901 -52.77263349 243.31335767 -53.97265625 244.4375 C-54.53098145 244.96085938 -55.08930664 245.48421875 -55.66455078 246.0234375 C-58.10241038 248.28699678 -60.61425729 250.46015328 -63.1328125 252.6328125 C-65.85674745 255.0253181 -68.52091628 257.4815768 -71.1875 259.9375 C-75.12029967 263.55845308 -79.08964153 267.12709047 -83.12890625 270.62890625 C-85.6770665 272.8676125 -88.18160593 275.15160212 -90.6875 277.4375 C-105.81436017 291.20440732 -105.81436017 291.20440732 -110.1875 293.4375 C-116.49784483 293.12715517 -116.49784483 293.12715517 -118.1875 291.4375 C-118.75659364 287.95180143 -118.85798509 285.48206671 -116.90625 282.44140625 C-113.43568057 278.3950378 -109.54689501 274.86187984 -105.48828125 271.41796875 C-102.66354731 268.98649148 -99.92585373 266.465047 -97.1875 263.9375 C-93.22939823 260.29280172 -89.23571799 256.69835032 -85.171875 253.171875 C-81.13375309 249.64249286 -77.16835319 246.03115774 -73.1875 242.4375 C-70.69062008 240.18953023 -68.19296849 237.94241993 -65.6953125 235.6953125 C-64.00157106 234.17041756 -62.30888831 232.64434598 -60.6171875 231.1171875 C-51.31818516 222.72817928 -51.31818516 222.72817928 -46.91015625 218.93359375 C-45.51289874 217.72010254 -44.1559812 216.46027167 -42.8125 215.1875 C-35.65753123 210.41752082 -25.65928482 209.23732053 -17.42507362 207.18593597 C-15.3043614 206.65718468 -13.18457046 206.1248717 -11.06498718 205.59161377 C-5.04420028 204.07726244 0.97759905 202.5670028 7.0012207 201.06396484 C28.53562156 195.69988776 28.53562156 195.69988776 49.87890625 189.62890625 C50.76648117 189.36072083 51.65405609 189.0925354 52.56852722 188.81622314 C61.56698513 186.01629781 70.93536132 182.68892579 78.8125 177.4375 C78.17745748 174.40196863 78.17745748 174.40196863 76.20664978 173.55253601 C75.50673416 173.31436661 74.80681854 173.0761972 74.08569336 172.83081055 C73.28329727 172.55646683 72.48090118 172.28212311 71.65419006 171.99946594 C70.76670578 171.71475937 69.8792215 171.4300528 68.96484375 171.13671875 C67.57035255 170.68144051 67.57035255 170.68144051 66.14768982 170.21696472 C52.91896055 166.04167655 39.31090051 163.35915878 25.75561523 160.48168945 C22.25270164 159.73389778 18.75332372 158.97098781 15.25390625 158.20703125 C14.1914418 157.98715042 13.12897736 157.76726959 12.03431702 157.54072571 C6.50600515 156.3304954 2.10232568 155.23437717 -2.1875 151.4375 C-2.75 147.8125 -2.75 147.8125 -2.1875 144.4375 C0.89797101 142.38051932 1.62119624 142.1632941 5.125 142.1875 C6.23294922 142.17976563 6.23294922 142.17976563 7.36328125 142.171875 C10.36626617 142.49755757 12.98155086 143.40806395 15.8125 144.4375 C16.37195313 143.38175781 16.93140625 142.32601562 17.5078125 141.23828125 C35.15005379 108.45858447 56.35520577 75.07975422 93.4375 63.125 C95.55508369 62.53519448 97.68040555 61.97248086 99.8125 61.4375 C100.89660156 61.16292969 101.98070312 60.88835937 103.09765625 60.60546875 C110.63930545 58.84777095 118.16420871 57.83023789 125.86010742 57.08349609 C129.00541301 56.77621406 131.80246652 56.44084449 134.8125 55.4375 C107.53922277 23.25384965 64.39207155 17.51849086 24.44921875 14.03515625 C20.23946149 13.71537084 16.03264821 13.54427162 11.8125 13.4375 C10.94641113 13.41558594 10.08032227 13.39367187 9.18798828 13.37109375 C-48.9102071 12.15924194 -106.54956818 25.75150392 -160.1875 47.4375 C-159.80335938 47.97987305 -159.41921875 48.52224609 -159.0234375 49.08105469 C-155.87689147 53.60076445 -154.29735017 56.76279486 -155.1875 62.4375 C-156.3125 64.375 -156.3125 64.375 -158.1875 65.4375 C-161.06640625 65.76953125 -161.06640625 65.76953125 -164.1875 65.4375 C-166.4153235 63.42082418 -167.98500169 61.20776262 -169.76953125 58.796875 C-175.53191561 53.17412838 -183.12558596 51.72360428 -190.875 50.75 C-192.20857544 50.56957153 -192.20857544 50.56957153 -193.5690918 50.38549805 C-203.73462844 49.09850793 -213.95143711 48.70573909 -224.1875 48.4375 C-223.43762817 49.08017822 -223.43762817 49.08017822 -222.67260742 49.73583984 C-218.1041626 53.68648978 -213.73624279 57.75934207 -209.5 62.0625 C-208.68692383 62.88234375 -208.68692383 62.88234375 -207.85742188 63.71875 C-206.79865141 64.78646062 -205.74145454 65.85573456 -204.68603516 66.92675781 C-203.25605941 68.3683821 -201.80620981 69.79021177 -200.35546875 71.2109375 C-197.84709029 73.78710997 -197.25848786 74.65677067 -196.93481445 78.21655273 C-197.22969683 81.97537711 -198.2172177 83.80605776 -200.23046875 86.97265625 C-200.88547363 88.01800537 -201.54047852 89.06335449 -202.21533203 90.14038086 C-202.92802246 91.24905518 -203.64071289 92.35772949 -204.375 93.5 C-205.11196826 94.67039109 -205.84746571 95.84170951 -206.58154297 97.01391602 C-209.36317596 101.44687236 -212.17868585 105.85794168 -214.99560547 110.26855469 C-240.10902908 149.65954804 -263.93118444 199.16859649 -267.80078125 246.55859375 C-268.1875 249.4375 -268.1875 249.4375 -270.1875 252.4375 C-273.625 252.875 -273.625 252.875 -277.1875 252.4375 C-279.64678101 250.11620196 -280.15717198 248.66537621 -280.60571289 245.29516602 C-280.58498228 235.86148295 -279.18046875 227.50665005 -276.625 218.375 C-276.25545498 217.01179767 -275.8868167 215.64834924 -275.51904297 214.28466797 C-274.44176525 210.32573394 -273.32071381 206.38079522 -272.1875 202.4375 C-271.8889209 201.39513184 -271.5903418 200.35276367 -271.28271484 199.27880859 C-260.65095458 162.78701984 -243.76607653 128.80890771 -223.03222656 97.05688477 C-219.0972553 91.0085806 -215.560244 84.81610409 -212.1875 78.4375 C-212.63029297 78.025 -213.07308594 77.6125 -213.52929688 77.1875 C-229.07463939 62.69361145 -229.07463939 62.69361145 -234.63671875 56.921875 C-236.31693151 55.22003565 -236.31693151 55.22003565 -239.1875 53.5 C-241.51919864 51.09543577 -241.60887398 50.25801632 -241.8125 47 C-241.6068807 43.42809894 -241.23279208 42.4983208 -239 39.5 C-234.53760762 36.22757892 -230.97158765 35.1845079 -225.4609375 35.171875 C-224.35548584 35.16784668 -223.25003418 35.16381836 -222.11108398 35.15966797 C-220.94005127 35.16885254 -219.76901855 35.17803711 -218.5625 35.1875 C-217.35859619 35.19281738 -216.15469238 35.19813477 -214.91430664 35.20361328 C-192.69437297 35.43727382 -192.69437297 35.43727382 -182.75390625 38.0859375 C-175.97084444 39.83909809 -172.40656968 38.94037211 -166.3125 35.6875 C-164.54596156 34.82835192 -162.77485031 33.97856187 -161 33.13671875 C-160.05898437 32.68989746 -159.11796875 32.24307617 -158.1484375 31.78271484 C-130.58107723 19.25829572 -100.02457272 12.35121716 -70.4375 6.5 C-69.40967407 6.29330185 -69.40967407 6.29330185 -68.36108398 6.08242798 C-45.7098114 1.57839592 -23.06984172 -0.1254256 0 0 Z " fill="#FFF" transform="translate(306.1875,117.5625)"/>
<path d="M0 0 C4.56015618 2.23862212 6.71684549 4.52877163 9 9 C9.43237305 11.55761719 9.43237305 11.55761719 9.51171875 14.296875 C9.56501343 15.84205811 9.56501343 15.84205811 9.61938477 17.41845703 C9.64186279 18.51786621 9.66434082 19.61727539 9.6875 20.75 C9.73765259 22.4513208 9.73765259 22.4513208 9.78881836 24.18701172 C10.10576679 36.12238403 10.1006477 48.06163416 10 60 C10.73629639 60.28738037 11.47259277 60.57476074 12.23120117 60.87084961 C19.13853043 63.68774387 25.74095386 67.26406048 32.37744141 70.65966797 C34.05887969 71.5190141 35.74321578 72.37272742 37.43115234 73.21923828 C39.63430028 74.33040336 41.81848123 75.472069 44 76.625 C44.65137939 76.94799072 45.30275879 77.27098145 45.97387695 77.60375977 C51.01197523 80.3378864 53.1663874 83.7402532 55 89 C55.84380906 95.01213954 54.41198095 98.20478352 51 103 C47.15233044 106.61447747 43.03796074 106.3960635 38.00967407 106.33728027 C32.87145164 105.76146342 28.79461552 103.53946154 24.29296875 101.109375 C22.83942741 100.35784149 22.83942741 100.35784149 21.35652161 99.59112549 C18.28884011 97.99811686 15.23864556 96.37441339 12.1875 94.75 C10.12147102 93.67380484 8.05442114 92.59956717 5.98632812 91.52734375 C-16.02968536 80.04629698 -16.02968536 80.04629698 -19 74 C-19.38768005 70.97145081 -19.38768005 70.97145081 -19.40405273 67.56079102 C-19.41673691 66.27918594 -19.42942108 64.99758087 -19.44248962 63.67713928 C-19.44043798 62.28605996 -19.43744978 60.89498174 -19.43359375 59.50390625 C-19.43815826 58.06810764 -19.44346464 56.63231122 -19.44947815 55.19651794 C-19.45839896 52.19138702 -19.45599825 49.18652198 -19.44604492 46.18139648 C-19.43455866 42.34010756 -19.4547654 38.49973841 -19.48396206 34.65857029 C-19.50235452 31.69445516 -19.5020256 28.73055919 -19.49632454 25.76640129 C-19.49617168 24.35068408 -19.50218661 22.93495167 -19.51461601 21.51928902 C-19.52957812 19.53577895 -19.51619207 17.55211714 -19.50170898 15.56860352 C-19.50154282 14.44229019 -19.50137665 13.31597687 -19.50120544 12.15553284 C-18.74775097 7.41186861 -16.43707812 4.26801011 -12.875 1.125 C-8.55651358 -0.56484251 -4.5732948 -0.65960983 0 0 Z " fill="#FFF" transform="translate(192,229)"/>
<path d="M0 0 C1.4840332 0.67627441 1.4840332 0.67627441 2.99804688 1.36621094 C8.60043433 3.94396634 14.18003859 6.569957 19.73046875 9.2578125 C20.67301514 9.7130127 21.61556152 10.16821289 22.58666992 10.63720703 C24.83741697 11.90819034 26.37239338 13.00643254 28 15 C28.39078556 17.72507798 28.13616953 20.23121956 28 23 C22.96360823 25.79253592 17.95809887 27.22786656 12.4375 28.6875 C2.02814131 31.53481194 -7.94604814 35.22226867 -17.95141602 39.24731445 C-26.17281662 42.26800067 -36.44447254 42.39161823 -44.625 39.25 C-49.74593729 36.83414254 -53.78973118 34.37454256 -56 29 C-56.96794504 23.66043431 -56.95566386 18.9366769 -54.52734375 14.015625 C-50.25509303 7.86630189 -45.30900038 3.01680301 -39 -1 C-38.33742188 -1.433125 -37.67484375 -1.86625 -36.9921875 -2.3125 C-25.35604821 -8.68361809 -11.29755298 -5.16638738 0 0 Z " fill="#FFF" transform="translate(378,148)"/>
</svg>
