<svg width="37" height="32" viewBox="0 0 37 32" fill="none" xmlns="http://www.w3.org/2000/svg">
<path d="M23.5454 13.4545H26.0681V20.6022L30.8781 23.4445L29.6168 25.4963L23.5454 21.8636V13.4545ZM30.2727 6.72726H3.36363V23.5454H13.9422C13.6227 22.4859 13.4545 21.359 13.4545 20.1818C13.4545 17.0595 14.6948 14.065 16.9027 11.8572C19.1105 9.64941 22.1049 8.40907 25.2272 8.40907C27.0268 8.40907 28.7422 8.81271 30.2727 9.53589V6.72726ZM3.36363 26.909C1.49681 26.909 0 25.3954 0 23.5454V3.36363C0 2.47154 0.354381 1.61599 0.985184 0.985184C1.61599 0.354381 2.47154 0 3.36363 0H13.4545L16.8181 3.36363H30.2727C31.1647 3.36363 32.0203 3.71801 32.6511 4.34881C33.2819 4.97962 33.6363 5.83517 33.6363 6.72726V11.9409C35.7217 14.06 36.9999 16.9695 36.9999 20.1818C36.9999 23.3041 35.7596 26.2985 33.5518 28.5063C31.344 30.7141 28.3495 31.9545 25.2272 31.9545C21.2245 31.9545 17.659 29.9531 15.5568 26.909H3.36363ZM25.2272 11.7727C22.997 11.7727 20.8581 12.6587 19.2811 14.2357C17.7041 15.8127 16.8181 17.9515 16.8181 20.1818C16.8181 22.412 17.7041 24.5509 19.2811 26.1279C20.8581 27.7049 22.997 28.5908 25.2272 28.5908C27.4574 28.5908 29.5963 27.7049 31.1733 26.1279C32.7503 24.5509 33.6363 22.412 33.6363 20.1818C33.6363 17.9515 32.7503 15.8127 31.1733 14.2357C29.5963 12.6587 27.4574 11.7727 25.2272 11.7727Z" fill="#E0E8F3"/>
</svg>
